<svg data-v-fde0c5aa="" xmlns="http://www.w3.org/2000/svg" viewBox="0 0 300 300" class="iconLeft"><!----><defs data-v-fde0c5aa=""><linearGradient data-v-fde0c5aa="" gradientTransform="rotate(25)" id="456f8df6-9efe-4c5c-9f87-99fb0ef608e9" x1="0%" y1="0%" x2="100%" y2="0%"><stop data-v-fde0c5aa="" offset="0%" stop-color="#1E0B36" stop-opacity="1"></stop><stop data-v-fde0c5aa="" offset="100%" stop-color="#CA3782" stop-opacity="1"></stop></linearGradient></defs><rect data-v-fde0c5aa="" fill="url(#456f8df6-9efe-4c5c-9f87-99fb0ef608e9)" x="0" y="0" width="300px" height="300px" class="logo-background-square"></rect><defs data-v-fde0c5aa=""><!----></defs><g data-v-fde0c5aa="" id="add6281c-8e78-4811-bfa0-15f6abcf24bc" fill="#ffffff" transform="matrix(3.1654099002846463,0,0,3.1654099002846463,106.65850095716331,132.5786873379902)"><path d="M6.37 0.71L6.37 0.71C5.39 0.38 4.70 0.27 3.86 0.31C0.98 0.45-0.25 3.99 1.78 5.77C3.08 6.90 4.47 6.79 4.52 7.45C4.61 8.15 2.72 8.01 1.64 7.22C1.15 6.87 0.60 7.63 1.09 7.98C2.02 8.65 3.15 8.88 4.06 8.82C4.82 8.76 5.50 8.19 5.46 7.41C5.36 5.92 3.63 6.16 2.41 5.07C1.40 4.20 1.60 2.73 2.35 1.93C3.28 0.91 4.79 1.15 6.05 1.60C6.64 1.81 6.94 0.91 6.37 0.71ZM0.91 9.97L0.91 9.97C1.46 10.26 2.00 10.44 2.48 10.54C5.10 11.17 7.36 9.97 7.36 7.41C7.36 4.80 4.30 4.24 3.78 3.85C3.32 3.49 3.68 2.62 5.80 3.47C6.37 3.71 6.71 2.84 6.16 2.62C2.67 1.20 2.09 3.68 3.21 4.56C3.92 5.14 6.44 5.49 6.44 7.41C6.44 10.00 3.51 10.29 1.36 9.14C0.81 8.86 0.38 9.69 0.91 9.97ZM3.98 7.90L3.98 7.90L3.98 7.90L3.98 7.90ZM15.22 2.23L15.22 2.23L12.87 2.23C12.61 2.23 12.40 2.44 12.40 2.70L12.40 10.16C12.40 10.43 12.61 10.64 12.87 10.64C13.13 10.64 13.34 10.43 13.34 10.16L13.34 3.15L15.22 3.15C15.47 3.15 15.67 2.95 15.67 2.70C15.67 2.44 15.47 2.23 15.22 2.23ZM8.68 1.29L8.68 1.29L15.22 1.29C15.47 1.29 15.67 1.08 15.67 0.83C15.67 0.56 15.47 0.36 15.22 0.36L8.68 0.36C8.41 0.36 8.20 0.56 8.20 0.83C8.20 1.08 8.41 1.29 8.68 1.29ZM8.68 3.15L8.68 3.15L10.53 3.15L10.53 10.16C10.53 10.43 10.75 10.64 11.00 10.64C11.27 10.64 11.48 10.43 11.48 10.16L11.48 2.70C11.48 2.44 11.27 2.23 11.00 2.23L8.68 2.23C8.41 2.23 8.20 2.44 8.20 2.70C8.20 2.95 8.41 3.15 8.68 3.15ZM22.48 2.23L22.48 2.23L19.52 2.23C19.25 2.23 19.04 2.42 19.04 2.69L19.04 4.56C19.04 4.82 19.25 5.03 19.52 5.03L21.62 5.03C21.88 5.03 22.09 4.82 22.09 4.56C22.09 4.30 21.88 4.09 21.62 4.09L19.98 4.09L19.98 3.15L22.48 3.15C22.75 3.15 22.96 2.94 22.96 2.69C22.96 2.42 22.75 2.23 22.48 2.23ZM21.62 5.96L21.62 5.96L19.52 5.96C19.25 5.96 19.04 6.17 19.04 6.43L19.04 8.30C19.04 8.55 19.25 8.76 19.52 8.76L22.48 8.76C22.75 8.76 22.96 8.55 22.96 8.30C22.96 8.04 22.75 7.83 22.48 7.83L19.98 7.83L19.98 6.90L21.62 6.90C21.88 6.90 22.09 6.69 22.09 6.43C22.09 6.17 21.88 5.96 21.62 5.96ZM22.48 9.70L22.48 9.70L18.12 9.70L18.12 1.29L22.48 1.29C22.75 1.29 22.96 1.08 22.96 0.81C22.96 0.56 22.75 0.35 22.48 0.35L17.64 0.35C17.39 0.35 17.18 0.56 17.18 0.81L17.18 10.18C17.18 10.43 17.39 10.64 17.64 10.64L22.48 10.64C22.75 10.64 22.96 10.43 22.96 10.18C22.96 9.91 22.75 9.70 22.48 9.70ZM30.76 9.70L30.76 9.70L25.77 9.70L25.77 0.81C25.77 0.56 25.56 0.35 25.31 0.35C25.05 0.35 24.84 0.56 24.84 0.81L24.84 10.18C24.84 10.43 25.05 10.64 25.31 10.64L30.76 10.64C31.02 10.64 31.22 10.43 31.22 10.18C31.22 9.91 31.02 9.70 30.76 9.70ZM26.71 0.81L26.71 0.81L26.71 8.30C26.71 8.55 26.92 8.76 27.17 8.76L30.76 8.76C31.02 8.76 31.22 8.55 31.22 8.30C31.22 8.04 31.02 7.83 30.76 7.83L27.65 7.83L27.65 0.81C27.65 0.56 27.44 0.35 27.17 0.35C26.92 0.35 26.71 0.56 26.71 0.81ZM38.86 9.70L38.86 9.70L33.88 9.70L33.88 0.81C33.88 0.56 33.67 0.35 33.42 0.35C33.15 0.35 32.94 0.56 32.94 0.81L32.94 10.18C32.94 10.43 33.15 10.64 33.42 10.64L38.86 10.64C39.13 10.64 39.33 10.43 39.33 10.18C39.33 9.91 39.13 9.70 38.86 9.70ZM34.82 0.81L34.82 0.81L34.82 8.30C34.82 8.55 35.03 8.76 35.28 8.76L38.86 8.76C39.13 8.76 39.33 8.55 39.33 8.30C39.33 8.04 39.13 7.83 38.86 7.83L35.76 7.83L35.76 0.81C35.76 0.56 35.55 0.35 35.28 0.35C35.03 0.35 34.82 0.56 34.82 0.81ZM45.05 5.03L45.05 5.03C45.82 5.03 46.47 4.42 46.47 3.64C46.47 2.93 45.91 2.21 45.05 2.21L43.39 2.21C42.77 2.21 42.77 3.15 43.39 3.15L45.05 3.15C45.32 3.15 45.54 3.35 45.54 3.63C45.54 4.17 45.02 4.10 44.59 4.10C43.83 4.10 43.86 4.98 44.59 5.03C44.74 5.04 44.93 5.03 45.05 5.03ZM45.92 9.90L45.92 9.90L43.78 6.83C43.51 6.48 42.92 6.62 42.92 7.13L42.92 10.18C42.92 10.79 43.86 10.79 43.86 10.18L43.86 8.58L45.15 10.44C45.51 10.95 46.27 10.40 45.92 9.90ZM41.99 10.18L41.99 10.18L41.99 1.29L45.21 1.29C45.84 1.29 46.41 1.54 46.83 1.96C48.27 3.42 47.26 5.96 45.21 5.96C44.86 5.96 44.58 6.37 44.86 6.73L47.45 10.44C47.78 10.95 48.55 10.40 48.20 9.90L46.03 6.79C46.59 6.65 47.10 6.34 47.50 5.94C49.52 3.86 48.08 0.35 45.21 0.35L41.52 0.35C41.27 0.35 41.05 0.56 41.05 0.81L41.05 10.18C41.05 10.79 41.99 10.79 41.99 10.18Z"></path></g><defs data-v-fde0c5aa=""><!----></defs><g data-v-fde0c5aa="" id="4d47e86d-bfce-4dd4-a1a1-67079e083f7e" stroke="none" fill="#ffffff" transform="matrix(0.12118377496911834,0,0,0.12118377496911834,36.86135714772642,118.97692171062607)"><path d="M376.8 262c2.9 16.3 17.1 28.2 33.7 28.2 18.9 0 34.3-15.3 34.3-34.2 0-18.9-15.3-34.3-34.2-34.3-16.6 0-30.8 11.9-33.7 28.2H135.4c-2.9-16.3-17.1-28.2-33.7-28.2-18.9 0-34.2 15.3-34.2 34.2 0 18.9 15.3 34.2 34.2 34.2 9.1 0 17.8-3.6 24.2-10 5-4.9 8.3-11.3 9.5-18.2h241.4z"></path><path d="M476.1 325.7c-13.4-13.4-35.1-13.4-48.5 0-5 5-8.3 11.4-9.5 18.3h-56.2c-12.6-.1-22.8-10.4-22.8-23 0-19.2-15.5-34.9-34.8-35h-96.6c-19.2.1-34.8 15.8-34.8 35 0 12.6-10.2 22.9-22.8 23H94c-1.2-6.9-4.5-13.3-9.5-18.3-13.4-13.3-35-13.2-48.3.1-13.3 13.4-13.2 35 .1 48.3 13.3 13.2 34.8 13.2 48.1 0 5-4.9 8.3-11.2 9.5-18.1h56.2c19.2-.1 34.8-15.8 34.8-35 0-12.6 10.2-22.9 22.8-23h96.6c12.6.1 22.8 10.4 22.8 23 0 19.2 15.5 34.9 34.8 35h56.2c1.2 6.9 4.5 13.2 9.5 18.1 13.4 13.4 35.1 13.4 48.5 0 13.3-13.3 13.4-35 0-48.4z"></path><path d="M391.6 391.3c-9.1 0-17.9 3.6-24.3 10.1-5.8 5.8-9.3 13.5-9.9 21.6h-8.1c-12.7-.1-23.9-8-28.3-19.9l-18.7-50.5a42.53 42.53 0 00-39.6-27.6h-13c-17.6 0-33.4 11-39.6 27.5l-18.7 50.6c-4.4 11.9-15.7 19.8-28.3 19.9H155c-1.5-18.7-17.9-32.6-36.6-31.1-18.7 1.5-32.6 17.9-31.1 36.6s17.9 32.6 36.6 31.1c8-.6 15.5-4.1 21.2-9.8 4.1-4.2 7.1-9.3 8.7-14.8h9.2c17.7-.1 33.4-11.1 39.6-27.7l18.7-50.5c4.4-11.8 15.7-19.7 28.3-19.7h13c12.6 0 23.9 7.8 28.3 19.7l18.7 50.6c6.2 16.6 21.9 27.6 39.6 27.7h9.2c1.8 5.5 4.7 10.6 8.6 14.8v-.1c7 6.5 15.1 10 24.3 10 18.9.1 34.3-15.2 34.3-34.1.1-19-15.1-34.3-34-34.4zM84.4 186.4l.1-.1c5-5 8.3-11.4 9.5-18.3h56.2c12.6.1 22.8 10.4 22.8 23 0 19.2 15.5 34.9 34.8 35h96.6c19.2-.1 34.8-15.8 34.8-35 0-12.6 10.2-22.9 22.8-23h56.2c1.2 6.9 4.5 13.3 9.5 18.3 13.4 13.4 35.1 13.4 48.4 0 13.4-13.4 13.4-35.1 0-48.4-13.4-13.4-35-13.4-48.4 0-5 4.9-8.3 11.2-9.5 18.1H362c-19.2.1-34.8 15.8-34.8 35 0 12.6-10.2 22.9-22.8 23h-96.6c-12.6-.1-22.8-10.4-22.8-23 0-19.2-15.5-34.9-34.8-35H94c-1.2-6.9-4.5-13.2-9.5-18.1-13.4-13.4-35.1-13.5-48.5-.1-13.4 13.4-13.5 35.1-.1 48.5 13.4 13.4 35.1 13.5 48.5.1z"></path><path d="M144.9 110.6c5.8-5.8 9.3-13.4 9.9-21.6h8.1c12.7.1 23.9 8 28.3 19.9l18.7 50.5a42.53 42.53 0 0039.6 27.6h13c17.6 0 33.4-11 39.6-27.5l18.7-50.6c4.4-11.9 15.7-19.8 28.3-19.9h8.1c1.5 18.7 17.9 32.6 36.6 31.1s32.6-17.9 31.1-36.6-17.9-32.6-36.6-31.1c-8 .6-15.5 4.1-21.2 9.8-4.1 4.2-7.1 9.3-8.7 14.8h-9.2c-17.7.1-33.4 11.1-39.6 27.7l-18.7 50.5c-4.4 11.8-15.7 19.7-28.3 19.7h-13c-12.6 0-23.9-7.8-28.3-19.7l-18.7-50.6C196.4 88 180.7 77 163 76.9h-9.2c-1.8-5.5-4.7-10.6-8.6-14.8v.1c-7-6.5-15.1-10-24.3-10-9.1 0-17.9 3.6-24.3 10.1-13.3 13.4-13.3 35 .1 48.4 13.3 13.3 34.9 13.3 48.2-.1z"></path></g><!----></svg>