<svg data-v-fde0c5aa="" xmlns="http://www.w3.org/2000/svg" viewBox="0 0 300 300" class="iconLeft"><!----><defs data-v-fde0c5aa=""><linearGradient data-v-fde0c5aa="" gradientTransform="rotate(25)" id="025fff98-253b-4282-b5fb-02c4da6cbe83" x1="0%" y1="0%" x2="100%" y2="0%"><stop data-v-fde0c5aa="" offset="0%" stop-color="#49247E" stop-opacity="1"></stop><stop data-v-fde0c5aa="" offset="100%" stop-color="#AA49C7" stop-opacity="1"></stop></linearGradient></defs><rect data-v-fde0c5aa="" fill="url(#025fff98-253b-4282-b5fb-02c4da6cbe83)" x="0" y="0" width="300px" height="300px" class="logo-background-square"></rect><defs data-v-fde0c5aa=""><!----></defs><g data-v-fde0c5aa="" id="cbaaecd4-61c4-4d07-9bee-ad957fbb4208" fill="#ffffff" transform="matrix(3.0047366018405253,0,0,3.0047366018405253,102.91237228793206,132.13684038626084)"><path d="M5.18 10.64L2.66 10.64L2.66 3.12L0.14 3.90L0.14 2.02L2.66 1.24L5.18 1.24L5.18 10.64ZM10.73 10.64L8.19 10.64L8.19 1.24L10.73 1.24L10.73 10.64ZM25.14 10.64L22.61 10.64L22.61 5.37Q22.61 4.85 22.52 4.42Q22.44 3.99 22.19 3.69Q21.95 3.38 21.52 3.22Q21.08 3.05 20.40 3.05L20.40 3.05Q19.88 3.05 19.31 3.19Q18.74 3.33 18.18 3.56Q17.62 3.79 17.11 4.10Q16.60 4.41 16.20 4.74L16.20 4.74L16.20 10.64L13.67 10.64L13.67 1.24L16.20 1.24L16.20 2.53Q16.68 2.26 17.22 1.99Q17.76 1.72 18.37 1.50Q18.98 1.28 19.66 1.14Q20.34 1.00 21.10 1.00L21.10 1.00Q22.05 1.00 22.80 1.23Q23.55 1.46 24.07 1.88Q24.59 2.30 24.87 2.90Q25.14 3.50 25.14 4.24L25.14 4.24L25.14 10.64ZM38.39 9.99L38.39 9.99Q37.90 10.20 37.40 10.36Q36.90 10.53 36.37 10.65Q35.83 10.77 35.24 10.83Q34.65 10.89 33.97 10.89L33.97 10.89Q32.54 10.89 31.33 10.58Q30.13 10.27 29.25 9.66Q28.38 9.04 27.90 8.11Q27.41 7.18 27.41 5.95L27.41 5.95Q27.41 4.71 27.90 3.78Q28.38 2.86 29.25 2.24Q30.13 1.62 31.33 1.31Q32.54 1.00 33.97 1.00L33.97 1.00Q34.65 1.00 35.24 1.07Q35.83 1.13 36.37 1.25Q36.90 1.37 37.40 1.53Q37.90 1.70 38.39 1.90L38.39 1.90L38.39 4.18Q38.00 3.97 37.57 3.76Q37.14 3.55 36.62 3.39Q36.10 3.22 35.48 3.11Q34.86 3.01 34.08 3.01L34.08 3.01Q32.88 3.01 32.09 3.25Q31.30 3.50 30.83 3.91Q30.36 4.32 30.17 4.85Q29.98 5.38 29.98 5.95L29.98 5.95Q29.98 6.32 30.06 6.69Q30.14 7.05 30.33 7.38Q30.52 7.70 30.83 7.98Q31.14 8.25 31.60 8.45Q32.05 8.65 32.67 8.76Q33.28 8.87 34.08 8.87L34.08 8.87Q34.86 8.87 35.48 8.77Q36.10 8.67 36.62 8.51Q37.14 8.35 37.57 8.14Q38.00 7.93 38.39 7.71L38.39 7.71L38.39 9.99ZM52.28 10.64L49.75 10.64L49.75 6.72L43.29 6.72L43.29 10.64L40.76 10.64L40.76 1.24L43.29 1.24L43.29 4.66L49.75 4.66L49.75 1.24L52.28 1.24L52.28 10.64Z"></path></g><defs data-v-fde0c5aa=""><!----></defs><g data-v-fde0c5aa="" id="c1d1cc17-27ec-42db-8d43-583afbb047aa" stroke="none" fill="#ffffff" transform="matrix(0.10936018555514757,0,0,0.10936018555514757,37.16758646276331,122.00376371273816)"><path d="M376.8 262c2.9 16.3 17.1 28.2 33.7 28.2 18.9 0 34.3-15.3 34.3-34.2 0-18.9-15.3-34.3-34.2-34.3-16.6 0-30.8 11.9-33.7 28.2H135.4c-2.9-16.3-17.1-28.2-33.7-28.2-18.9 0-34.2 15.3-34.2 34.2 0 18.9 15.3 34.2 34.2 34.2 9.1 0 17.8-3.6 24.2-10 5-4.9 8.3-11.3 9.5-18.2h241.4z"></path><path d="M476.1 325.7c-13.4-13.4-35.1-13.4-48.5 0-5 5-8.3 11.4-9.5 18.3h-56.2c-12.6-.1-22.8-10.4-22.8-23 0-19.2-15.5-34.9-34.8-35h-96.6c-19.2.1-34.8 15.8-34.8 35 0 12.6-10.2 22.9-22.8 23H94c-1.2-6.9-4.5-13.3-9.5-18.3-13.4-13.3-35-13.2-48.3.1-13.3 13.4-13.2 35 .1 48.3 13.3 13.2 34.8 13.2 48.1 0 5-4.9 8.3-11.2 9.5-18.1h56.2c19.2-.1 34.8-15.8 34.8-35 0-12.6 10.2-22.9 22.8-23h96.6c12.6.1 22.8 10.4 22.8 23 0 19.2 15.5 34.9 34.8 35h56.2c1.2 6.9 4.5 13.2 9.5 18.1 13.4 13.4 35.1 13.4 48.5 0 13.3-13.3 13.4-35 0-48.4z"></path><path d="M391.6 391.3c-9.1 0-17.9 3.6-24.3 10.1-5.8 5.8-9.3 13.5-9.9 21.6h-8.1c-12.7-.1-23.9-8-28.3-19.9l-18.7-50.5a42.53 42.53 0 00-39.6-27.6h-13c-17.6 0-33.4 11-39.6 27.5l-18.7 50.6c-4.4 11.9-15.7 19.8-28.3 19.9H155c-1.5-18.7-17.9-32.6-36.6-31.1-18.7 1.5-32.6 17.9-31.1 36.6s17.9 32.6 36.6 31.1c8-.6 15.5-4.1 21.2-9.8 4.1-4.2 7.1-9.3 8.7-14.8h9.2c17.7-.1 33.4-11.1 39.6-27.7l18.7-50.5c4.4-11.8 15.7-19.7 28.3-19.7h13c12.6 0 23.9 7.8 28.3 19.7l18.7 50.6c6.2 16.6 21.9 27.6 39.6 27.7h9.2c1.8 5.5 4.7 10.6 8.6 14.8v-.1c7 6.5 15.1 10 24.3 10 18.9.1 34.3-15.2 34.3-34.1.1-19-15.1-34.3-34-34.4zM84.4 186.4l.1-.1c5-5 8.3-11.4 9.5-18.3h56.2c12.6.1 22.8 10.4 22.8 23 0 19.2 15.5 34.9 34.8 35h96.6c19.2-.1 34.8-15.8 34.8-35 0-12.6 10.2-22.9 22.8-23h56.2c1.2 6.9 4.5 13.3 9.5 18.3 13.4 13.4 35.1 13.4 48.4 0 13.4-13.4 13.4-35.1 0-48.4-13.4-13.4-35-13.4-48.4 0-5 4.9-8.3 11.2-9.5 18.1H362c-19.2.1-34.8 15.8-34.8 35 0 12.6-10.2 22.9-22.8 23h-96.6c-12.6-.1-22.8-10.4-22.8-23 0-19.2-15.5-34.9-34.8-35H94c-1.2-6.9-4.5-13.2-9.5-18.1-13.4-13.4-35.1-13.5-48.5-.1-13.4 13.4-13.5 35.1-.1 48.5 13.4 13.4 35.1 13.5 48.5.1z"></path><path d="M144.9 110.6c5.8-5.8 9.3-13.4 9.9-21.6h8.1c12.7.1 23.9 8 28.3 19.9l18.7 50.5a42.53 42.53 0 0039.6 27.6h13c17.6 0 33.4-11 39.6-27.5l18.7-50.6c4.4-11.9 15.7-19.8 28.3-19.9h8.1c1.5 18.7 17.9 32.6 36.6 31.1s32.6-17.9 31.1-36.6-17.9-32.6-36.6-31.1c-8 .6-15.5 4.1-21.2 9.8-4.1 4.2-7.1 9.3-8.7 14.8h-9.2c-17.7.1-33.4 11.1-39.6 27.7l-18.7 50.5c-4.4 11.8-15.7 19.7-28.3 19.7h-13c-12.6 0-23.9-7.8-28.3-19.7l-18.7-50.6C196.4 88 180.7 77 163 76.9h-9.2c-1.8-5.5-4.7-10.6-8.6-14.8v.1c-7-6.5-15.1-10-24.3-10-9.1 0-17.9 3.6-24.3 10.1-13.3 13.4-13.3 35 .1 48.4 13.3 13.3 34.9 13.3 48.2-.1z"></path></g><!----></svg>