<svg data-v-423bf9ae="" xmlns="http://www.w3.org/2000/svg" viewBox="0 0 316.3194999776769 60" class="font"><!----><!----><!----><g data-v-423bf9ae="" id="fb107d60-7f40-4b01-b8d2-2871f2e9ac11" fill="white" transform="matrix(6.066733864221661,0,0,6.066733864221661,-0.8493402304080746,-6.066733387384502)"><path d="M5.18 10.64L2.66 10.64L2.66 3.12L0.14 3.90L0.14 2.02L2.66 1.24L5.18 1.24L5.18 10.64ZM10.73 10.64L8.19 10.64L8.19 1.24L10.73 1.24L10.73 10.64ZM25.14 10.64L22.61 10.64L22.61 5.37Q22.61 4.85 22.52 4.42Q22.44 3.99 22.19 3.69Q21.95 3.38 21.52 3.22Q21.08 3.05 20.40 3.05L20.40 3.05Q19.88 3.05 19.31 3.19Q18.74 3.33 18.18 3.56Q17.62 3.79 17.11 4.10Q16.60 4.41 16.20 4.74L16.20 4.74L16.20 10.64L13.67 10.64L13.67 1.24L16.20 1.24L16.20 2.53Q16.68 2.26 17.22 1.99Q17.76 1.72 18.37 1.50Q18.98 1.28 19.66 1.14Q20.34 1.00 21.10 1.00L21.10 1.00Q22.05 1.00 22.80 1.23Q23.55 1.46 24.07 1.88Q24.59 2.30 24.87 2.90Q25.14 3.50 25.14 4.24L25.14 4.24L25.14 10.64ZM38.39 9.99L38.39 9.99Q37.90 10.20 37.40 10.36Q36.90 10.53 36.37 10.65Q35.83 10.77 35.24 10.83Q34.65 10.89 33.97 10.89L33.97 10.89Q32.54 10.89 31.33 10.58Q30.13 10.27 29.25 9.66Q28.38 9.04 27.90 8.11Q27.41 7.18 27.41 5.95L27.41 5.95Q27.41 4.71 27.90 3.78Q28.38 2.86 29.25 2.24Q30.13 1.62 31.33 1.31Q32.54 1.00 33.97 1.00L33.97 1.00Q34.65 1.00 35.24 1.07Q35.83 1.13 36.37 1.25Q36.90 1.37 37.40 1.53Q37.90 1.70 38.39 1.90L38.39 1.90L38.39 4.18Q38.00 3.97 37.57 3.76Q37.14 3.55 36.62 3.39Q36.10 3.22 35.48 3.11Q34.86 3.01 34.08 3.01L34.08 3.01Q32.88 3.01 32.09 3.25Q31.30 3.50 30.83 3.91Q30.36 4.32 30.17 4.85Q29.98 5.38 29.98 5.95L29.98 5.95Q29.98 6.32 30.06 6.69Q30.14 7.05 30.33 7.38Q30.52 7.70 30.83 7.98Q31.14 8.25 31.60 8.45Q32.05 8.65 32.67 8.76Q33.28 8.87 34.08 8.87L34.08 8.87Q34.86 8.87 35.48 8.77Q36.10 8.67 36.62 8.51Q37.14 8.35 37.57 8.14Q38.00 7.93 38.39 7.71L38.39 7.71L38.39 9.99ZM52.28 10.64L49.75 10.64L49.75 6.72L43.29 6.72L43.29 10.64L40.76 10.64L40.76 1.24L43.29 1.24L43.29 4.66L49.75 4.66L49.75 1.24L52.28 1.24L52.28 10.64Z"></path></g><!----><!----></svg>